{"title":"Godzilla 2014 720p WEBRip HC SUBS x264 Pimp4003","uid":10676702,"size":2020338336,"categoryP":"video","categoryS":"hd___movies","magnet":"?xt=urn:btih:71ee1c8ee6be70029239c235dc0058dfab6f3a46&amp;dn=Godzilla+2014+720p+WEBRip+HC+SUBS+x264+Pimp4003&amp;tr=udp%3A%2F%2Ftracker.openbittorrent.com%3A80&amp;tr=udp%3A%2F%2Fopen.demonii.com%3A1337&amp;tr=udp%3A%2F%2Ftracker.coppersurfer.tk%3A6969&amp;tr=udp%3A%2F%2Fexodus.desync.com%3A6969","seeders":5,"leechers":0,"uploader":"shawnmurthy","files":-1,"time":1406963413,"description":"[color=red][b]THANKS TO SPECTRE FOR THE SOURCE....DID SOME WORK ON IT....AUDIO WAS LOUD MADE IT BETTER....VIDEO WAS GOOD I WOULD SAY THIS IS ONE OF THE BEST OUT RIGHT NOW UNTIL WEB-DL.....CHANGE THE CONTRAST AND ADJUSTED BRIGHTNESS.......ENJOY...PIMP4003 OUT[/b][/color]\n\nSOURCE-SPECTRE\n\n[IMG]http://i.imgur.com/Q7K4oJu.png[/IMG]\n\n[IMG]http://i.imgur.com/69uL5sU.jpg[/IMG]\n\n[URL=http://istoreimg.com/i/53dc6f21c379c.html][IMG]http://istoreimg.com/upload/small/2014/08/02/53dc6f21c3761.jpg[/IMG][/URL]\n\n[color=blue][b]SCREENSHOTS, VIDEO INFO, SAMPLE AND FOR EXCLUSIVE RELEASES VISIT BELOW LINK[/b][/color]\n\nGodzilla 2014 720p WEBRip HC SUBS x264 Pimp4003\n\nENJOY\n\nPIMP4003\n\n\nVideo\nID                                       : 2\nFormat                                   : AVC\nFormat/Info                              : Advanced Video Codec\nFormat profile                           : &lt;a class=&quot;__cf_email__&quot; href=&quot;/cdn-cgi/l/email-protection&quot; data-cfemail=&quot;e8aa899b8d8481868da8a4dbc6d8&quot;&gt;[email&amp;#160;protected]&lt;/a&gt;&lt;script cf-hash='f9e31' type=&quot;text/javascript&quot;&gt;\n/* &lt;![CDATA[ */!function(){try{var t=&quot;currentScript&quot;in document?document.currentScript:function(){for(var t=document.getElementsByTagName(&quot;script&quot;),e=t.length;e--;)if(t[e].getAttribute(&quot;cf-hash&quot;))return t[e]}();if(t&amp;&amp;t.previousSibling){var e,r,n,i,c=t.previousSibling,a=c.getAttribute(&quot;data-cfemail&quot;);if(a){for(e=&quot;&quot;,r=parseInt(a.substr(0,2),16),n=2;a.length-n;n+=2)i=parseInt(a.substr(n,2),16)^r,e+=String.fromCharCode(i);e=document.createTextNode(e),c.parentNode.replaceChild(e,c)}}}catch(u){}}();/* ]]&gt; */&lt;/script&gt;\nFormat settings, CABAC                   : No\nFormat settings, ReFrames                : 1 frame\nFormat settings, GOP                     : M=1, N=25\nMuxing mode                              : Container profile=&lt;a class=&quot;__cf_email__&quot; href=&quot;/cdn-cgi/l/email-protection&quot; data-cfemail=&quot;aeeccfddcbc2c7c0cbee9a809f&quot;&gt;[email&amp;#160;protected]&lt;/a&gt;&lt;script cf-hash='f9e31' type=&quot;text/javascript&quot;&gt;\n/* &lt;![CDATA[ */!function(){try{var t=&quot;currentScript&quot;in document?document.currentScript:function(){for(var t=document.getElementsByTagName(&quot;script&quot;),e=t.length;e--;)if(t[e].getAttribute(&quot;cf-hash&quot;))return t[e]}();if(t&amp;&amp;t.previousSibling){var e,r,n,i,c=t.previousSibling,a=c.getAttribute(&quot;data-cfemail&quot;);if(a){for(e=&quot;&quot;,r=parseInt(a.substr(0,2),16),n=2;a.length-n;n+=2)i=parseInt(a.substr(n,2),16)^r,e+=String.fromCharCode(i);e=document.createTextNode(e),c.parentNode.replaceChild(e,c)}}}catch(u){}}();/* ]]&gt; */&lt;/script&gt;\nCodec ID                                 : avc1\nCodec ID/Info                            : Advanced Video Coding\nDuration                                 : 1h 58mn\nBit rate                                 : 2 106 Kbps\nWidth                                    : 1 280 pixels\nHeight                                   : 720 pixels\nDisplay aspect ratio                     : 16:9\nFrame rate mode                          : Constant\nFrame rate                               : 23.976 fps\nOriginal frame rate                      : 23.000 fps\nColor space                              : YUV\nChroma subsampling                       : 4:2:0\nBit depth                                : 8 bits\nScan type                                : Progressive\nBits/(Pixel*Frame)                       : 0.095\nStream size                              : 1.74 GiB (93%)\nWriting library                          : \nLanguage                                 : English\n\nAudio\nID                                       : 1\nFormat                                   : AAC\nFormat/Info                              : Advanced Audio Codec\nFormat profile                           : LC\nCodec ID                                 : 40\nDuration                                 : 1h 58mn\nBit rate mode                            : Constant\nBit rate                                 : 165 Kbps\nChannel(s)                               : 2 channels\nChannel positions                        : Front: L R\nSampling rate                            : 48.0 KHz\nCompression mode                         : Lossy\nStream size                              : 140 MiB (7%)\nLanguage                                 : English\n","torrent":{"xt":"urn:btih:71ee1c8ee6be70029239c235dc0058dfab6f3a46","amp;dn":"Godzilla+2014+720p+WEBRip+HC+SUBS+x264+Pimp4003","amp;tr":["udp%3A%2F%2Ftracker.openbittorrent.com%3A80","udp%3A%2F%2Fopen.demonii.com%3A1337","udp%3A%2F%2Ftracker.coppersurfer.tk%3A6969","udp%3A%2F%2Fexodus.desync.com%3A6969"],"infoHash":"71ee1c8ee6be70029239c235dc0058dfab6f3a46","infoHashBuffer":{"type":"Buffer","data":[113,238,28,142,230,190,112,2,146,57,194,53,220,0,88,223,171,111,58,70]},"announce":[],"urlList":[]}}